<svg version="1.1" id="Layer_1" xmlns="http://www.w3.org/2000/svg" xmlns:xlink="http://www.w3.org/1999/xlink" x="0px" y="0px"
	 width="100%" viewBox="0 0 992 1024" enable-background="new 0 0 992 1024" xml:space="preserve">
<path fill="#000000" opacity="1.000000" stroke="none" 
	d="
M993.000000,119.000000 
	C993.000000,209.024902 993.000000,299.049805 992.688477,389.490967 
	C988.896240,389.992645 985.415771,390.131378 981.934631,390.150208 
	C977.429565,390.174530 974.362610,392.147278 972.724670,396.415985 
	C970.742065,401.582947 969.280273,406.863464 969.053406,412.412170 
	C968.720215,420.560120 968.286865,428.710938 968.243591,436.862396 
	C968.128906,458.452606 960.873047,477.951141 951.020508,496.704346 
	C949.270264,500.035828 946.514832,502.439911 942.921753,503.794464 
	C937.515747,505.832520 933.191467,509.303986 929.121521,513.394775 
	C915.745422,526.839417 902.585083,540.654358 884.174500,547.472229 
	C864.013550,554.938232 853.995605,572.336182 844.127808,589.413818 
	C838.663635,598.870361 835.152405,609.537537 833.882751,620.578613 
	C831.903320,637.790894 836.400269,652.926025 849.863342,664.476990 
	C857.341492,670.893005 866.249634,676.692749 870.185913,685.492798 
	C876.630615,699.900757 886.408203,710.384705 899.460266,718.453918 
	C900.436096,719.057312 901.300110,719.907593 902.063171,720.777283 
	C905.216614,724.371399 909.196716,725.326904 913.798401,724.877014 
	C917.688477,724.496765 921.279358,723.241577 924.752563,721.615112 
	C930.060242,719.129395 935.592102,718.664490 941.341125,719.219543 
	C947.890259,719.851868 954.301636,721.439209 960.034058,724.382935 
	C969.917603,729.458313 979.776550,733.099487 991.018494,729.850342 
	C991.614746,729.678040 992.336609,729.940125 993.000000,730.000000 
	C993.000000,828.306946 993.000000,926.613831 993.000000,1024.960449 
	C662.448608,1024.960449 331.897278,1024.960449 1.000000,1024.960449 
	C1.000000,926.975342 1.000000,828.950317 1.219936,730.661316 
	C7.608864,733.442932 12.622463,737.954834 17.373701,742.827820 
	C18.162434,743.636658 19.254499,744.294250 20.329453,744.657227 
	C30.826544,748.201538 38.905880,755.559082 47.788368,761.707397 
	C58.368706,769.031006 69.497200,772.944092 82.368752,766.516785 
	C90.460968,762.475891 96.503075,757.668640 97.794365,747.986450 
	C99.038498,738.657898 103.230850,730.607300 110.515648,724.302124 
	C114.307060,721.020508 114.715141,717.438049 112.012230,713.202393 
	C110.949867,711.537598 109.377304,710.208008 108.175400,708.621033 
	C102.027122,700.502869 97.883293,691.984253 98.421364,681.137268 
	C98.914337,671.199280 104.590652,664.537476 110.010826,657.468384 
	C121.109245,642.993774 134.239761,630.051819 142.511734,613.442932 
	C144.390259,609.671204 145.183151,606.146545 144.841812,601.999268 
	C143.438736,584.951599 134.266800,571.342163 125.252884,557.760193 
	C115.340561,542.824585 101.189217,532.010376 87.271698,521.219482 
	C75.638763,512.199890 64.699303,502.649597 55.486645,491.141205 
	C52.992538,488.025604 49.978600,484.425110 45.777435,484.889465 
	C38.938160,485.645477 35.536526,482.545990 33.373161,476.735992 
	C32.330460,473.935638 30.891418,471.285614 29.725912,468.527740 
	C27.193447,462.535248 24.418926,456.657562 20.816397,451.235474 
	C18.028151,447.039001 15.994548,447.075989 12.885793,450.861755 
	C10.654864,453.578400 8.410596,456.294983 4.162572,455.293701 
	C2.192710,454.829437 2.010574,457.028870 1.000000,458.000000 
	C1.000000,351.308411 1.000000,244.616837 1.182002,137.691956 
	C2.067621,138.739029 2.524241,140.502747 4.604053,139.228714 
	C9.079428,136.487244 12.686209,137.559875 15.991707,141.428619 
	C18.567320,144.443115 21.221878,143.634140 23.547773,140.851273 
	C25.398815,138.636581 26.470615,136.016464 27.407185,133.338272 
	C29.387489,127.675446 31.621962,122.150078 34.509399,116.853622 
	C41.106762,104.752007 48.056629,101.271484 61.536701,104.145454 
	C65.396545,104.968376 68.731079,104.475281 72.021179,102.437431 
	C81.749306,96.411957 89.150246,88.249428 94.400597,78.130943 
	C99.096611,69.080750 105.420403,61.375393 113.993767,55.886688 
	C122.679062,50.326324 131.409637,44.636593 140.730026,40.319828 
	C151.975876,35.111290 160.774307,27.433338 168.497253,18.066168 
	C174.459671,10.834336 173.451263,5.438563 165.000000,1.000000 
	C411.024902,1.000000 657.049805,1.000000 903.284668,1.191784 
	C900.167542,5.065564 902.589050,9.687568 901.500977,13.782594 
	C900.627197,17.070944 902.066833,19.981859 904.666016,22.225548 
	C909.070496,26.027727 913.163696,30.281925 917.931824,33.553020 
	C928.752075,40.976044 939.985291,47.809532 947.533508,59.021500 
	C948.251648,60.088154 949.451904,60.864235 950.516174,61.657223 
	C953.263184,63.704151 955.229980,66.363647 956.612488,69.440224 
	C963.063477,83.796181 972.568359,96.810577 975.229065,112.848114 
	C976.045349,117.768486 979.882385,119.580315 984.668640,118.648750 
	C987.531860,118.091469 990.260559,117.946289 993.000000,119.000000 
M829.865295,343.708710 
	C832.378418,332.708252 834.958313,321.722565 837.390015,310.704163 
	C841.753479,290.932739 846.244629,271.185089 850.219849,251.334885 
	C851.574890,244.568680 854.450500,237.993805 851.013977,230.512131 
	C831.209595,187.396011 811.788330,144.103592 792.360046,100.815842 
	C790.946655,97.666695 788.830566,96.170662 785.706787,95.584923 
	C764.343628,91.579239 742.984741,87.551003 721.615295,83.579361 
	C691.423523,77.968048 661.218445,72.428078 631.034485,66.775284 
	C627.349487,66.085159 624.345581,66.717865 621.235718,68.960266 
	C582.331299,97.013313 543.320618,124.918976 504.436188,152.999588 
	C501.152618,155.370850 498.863281,155.387115 495.623230,153.001770 
	C480.207336,141.652710 464.620911,130.535385 449.099548,119.329567 
	C426.829254,103.251266 404.571106,87.156090 382.281677,71.104393 
	C380.036102,69.487236 377.950562,67.777481 374.627594,68.397202 
	C362.374664,70.682289 350.058136,72.623962 337.777832,74.765228 
	C298.157684,81.673653 258.546478,88.633575 218.920517,95.508461 
	C215.141937,96.164024 212.594376,97.939636 211.019272,101.495224 
	C203.348495,118.810867 195.632950,136.107224 187.825897,153.361816 
	C177.263748,176.705582 166.460983,199.941986 156.106461,223.376877 
	C154.039719,228.054413 150.510208,232.437515 151.861923,238.375107 
	C159.006744,269.759796 165.953644,301.189484 173.003738,332.595795 
	C179.653702,362.219727 186.649811,391.770538 192.872375,421.483612 
	C195.386810,433.490082 199.332733,443.064636 209.875351,451.244110 
	C244.188019,477.865570 277.359406,505.956360 311.022247,533.417664 
	C342.356628,558.979492 373.765747,584.449829 405.127289,609.978394 
	C436.105835,635.195251 467.088013,660.407715 497.998688,685.707520 
	C500.941986,688.116577 502.990692,688.388489 506.125336,685.737610 
	C521.508057,672.729004 537.091064,659.956299 552.654053,647.161987 
	C593.424744,613.644348 634.265747,580.212158 674.996399,546.645996 
	C718.683716,510.643280 762.270691,474.518860 805.927551,438.479187 
	C808.475525,436.375824 810.073425,433.996338 810.718628,430.634766 
	C812.094238,423.466797 813.948914,416.392120 815.520081,409.260040 
	C820.271851,387.690002 824.981934,366.110809 829.865295,343.708710 
M278.664429,838.489685 
	C282.426849,820.952515 286.123596,803.400879 290.002533,785.889465 
	C290.864655,781.997314 289.294617,780.521729 285.767487,780.462708 
	C280.603760,780.376404 275.436340,780.505432 270.272797,780.413269 
	C266.661865,780.348816 264.955261,781.936279 264.196350,785.533691 
	C260.732788,801.951843 256.984497,818.309692 253.440094,834.711121 
	C249.905319,851.067993 246.491302,867.450928 242.995514,883.958618 
	C240.991058,883.024597 240.944717,881.466553 240.582672,880.047363 
	C233.351501,851.700745 225.977982,823.389526 218.911133,795.002075 
	C214.373230,776.773315 215.840942,780.850342 200.555756,780.468323 
	C192.657486,780.270813 192.532578,780.573608 190.495972,788.375000 
	C182.430801,819.269287 174.364853,850.163452 166.243042,881.042847 
	C165.819382,882.653687 166.001755,884.797607 163.824020,885.433960 
	C162.722321,885.046448 162.709396,884.144836 162.537048,883.356506 
	C158.883514,866.645996 155.228287,849.935791 151.591049,833.221680 
	C148.131271,817.322937 144.670670,801.424255 141.259033,785.515076 
	C140.473038,781.849792 138.503448,780.160278 134.612610,780.354309 
	C129.958817,780.586426 125.284447,780.385193 120.619270,780.415405 
	C114.391632,780.455750 114.042557,781.032776 115.372429,787.097656 
	C120.100899,808.661987 124.734856,830.246948 129.433914,851.817749 
	C135.159332,878.099854 140.924683,904.373169 146.643723,930.656677 
	C147.368774,933.988831 148.884079,935.935059 152.722870,935.765259 
	C158.210846,935.522522 163.721390,935.557251 169.213867,935.734558 
	C172.646072,935.845337 174.405884,934.410583 175.253296,931.163879 
	C182.010056,905.276855 188.842987,879.409851 195.631683,853.531250 
	C198.096573,844.135071 200.504745,834.723999 202.974014,825.183716 
	C205.048935,826.154602 205.123383,827.502808 205.456375,828.804321 
	C214.069778,862.470032 222.801559,896.105896 231.255783,929.811340 
	C232.363525,934.227722 234.299133,936.039734 238.758987,935.762085 
	C242.742966,935.514038 246.753586,935.695007 250.752457,935.684631 
	C257.963623,935.665894 258.109619,935.469727 259.583771,928.513245 
	C265.884705,898.778931 272.233673,869.054871 278.664429,838.489685 
M428.628754,808.500244 
	C428.629150,801.504517 428.650269,794.508789 428.623840,787.513123 
	C428.599854,781.168396 427.884003,780.475769 421.367004,780.425049 
	C417.536255,780.395264 413.704865,780.407227 409.873993,780.431641 
	C403.861359,780.469910 403.387817,780.926392 403.383301,787.052490 
	C403.366028,810.538391 403.393951,834.024353 403.336334,857.510132 
	C403.331757,859.371826 404.062286,861.494202 402.155975,863.252319 
	C401.391724,862.986572 400.577454,862.824585 399.882782,862.444275 
	C380.318909,851.733215 360.790222,840.957397 341.186859,830.319336 
	C338.441437,828.829529 337.557770,826.899963 337.583282,823.913147 
	C337.690002,811.421631 337.484650,798.926270 337.689575,786.437195 
	C337.765228,781.824402 335.993713,780.128479 331.499420,780.368408 
	C327.014923,780.607910 322.507507,780.401428 318.010376,780.426453 
	C311.884369,780.460510 311.390167,780.918091 311.384552,786.935608 
	C311.364746,808.256165 311.376953,829.576721 311.377167,850.897278 
	C311.377411,877.214844 311.443970,903.532654 311.312317,929.849609 
	C311.290680,934.178528 312.785828,935.904846 317.137970,935.672974 
	C321.788666,935.425110 326.462830,935.635620 331.126587,935.611328 
	C337.194641,935.579712 337.610077,935.190308 337.616425,928.999573 
	C337.638458,907.512451 337.610931,886.025330 337.647217,864.538269 
	C337.650513,862.597229 337.192963,860.557312 338.299622,858.737854 
	C339.982117,858.265442 341.274017,859.151855 342.555389,859.858582 
	C361.504791,870.309937 380.411163,880.840027 399.406769,891.206543 
	C402.477417,892.882324 403.490845,895.033020 403.434570,898.415894 
	C403.265625,908.573608 403.358215,918.736023 403.381775,928.896545 
	C403.396393,935.211975 403.804321,935.589600 410.286987,935.615906 
	C413.951385,935.630798 417.615936,935.622192 421.280396,935.616089 
	C428.539490,935.604065 428.621918,935.543762 428.623413,928.429016 
	C428.631805,888.786133 428.628113,849.143188 428.628754,808.500244 
M538.588623,804.685303 
	C537.248474,800.926697 536.041138,797.114380 534.544983,793.418945 
	C528.481567,778.443420 532.235046,780.596558 516.139893,780.415710 
	C515.140869,780.404541 514.114563,780.565430 513.146790,780.391296 
	C507.202301,779.322144 504.492554,782.436279 502.596405,787.636902 
	C493.882629,811.536438 484.935791,835.350891 476.084869,859.200500 
	C467.347382,882.744446 458.617188,906.291016 449.901520,929.842957 
	C448.021118,934.924255 448.502167,935.626648 453.955994,935.685181 
	C459.117615,935.740540 464.285522,935.545471 469.440948,935.730896 
	C472.944885,935.856995 475.042969,934.547363 476.237091,931.219727 
	C478.652893,924.487854 481.389709,917.870178 483.755035,911.121643 
	C484.822845,908.074890 486.609680,906.134583 489.487061,904.682922 
	C500.036316,899.360535 510.463043,893.795898 520.973022,888.394714 
	C526.712891,885.445007 532.527222,882.640259 538.529602,879.660217 
	C539.040100,880.940918 539.356873,881.686951 539.637329,882.446350 
	C545.455139,898.200439 551.376404,913.917664 557.011108,929.737000 
	C558.504883,933.930847 560.637451,936.122620 565.312012,935.792847 
	C569.620667,935.489014 573.967224,935.752808 578.296326,935.701477 
	C584.926147,935.622925 585.565063,934.681519 583.470337,928.256531 
	C583.212524,927.465820 582.914978,926.687927 582.630554,925.906067 
	C568.024597,885.749451 553.418091,845.593079 538.588623,804.685303 
M631.133118,935.628418 
	C636.132385,935.661316 641.131653,935.727234 646.130859,935.719482 
	C653.597656,935.708008 653.619385,935.680176 653.620667,928.131531 
	C653.627136,889.637573 653.620239,851.143616 653.629150,812.649658 
	C653.630737,805.645264 653.654358,805.630371 660.831726,805.622253 
	C671.664856,805.610046 682.498047,805.640076 693.331116,805.614624 
	C699.492554,805.600159 700.465759,804.614868 700.577759,798.297729 
	C700.642761,794.632263 700.644348,790.963928 700.585754,787.298340 
	C700.492371,781.456909 699.462219,780.451111 693.419128,780.424194 
	C683.919495,780.381897 674.419556,780.410217 664.919739,780.411499 
	C638.920227,780.415100 612.920654,780.410583 586.921143,780.431580 
	C580.381958,780.436829 579.468811,781.372192 579.392822,787.975037 
	C579.352539,791.474548 579.330139,794.976013 579.400574,798.474548 
	C579.519531,804.381348 580.644836,805.565796 586.437439,805.593933 
	C598.603638,805.653015 610.772278,805.747925 622.935486,805.552124 
	C626.999573,805.486633 628.545898,806.753601 628.439575,810.943970 
	C628.202942,820.270996 628.450928,829.609192 628.359680,838.941406 
	C628.066345,868.933533 627.696899,898.924927 627.396606,928.916992 
	C627.370911,931.485779 626.685303,934.478882 631.133118,935.628418 
M788.845215,825.763489 
	C788.017639,830.071106 786.328796,834.023865 783.878113,837.647949 
	C778.752380,845.227783 773.343445,852.631104 768.534302,860.406006 
	C762.852661,869.591553 759.542603,879.639465 759.361206,890.588928 
	C759.303467,894.075317 760.688904,895.972351 764.289673,895.955750 
	C768.119751,895.938110 771.949646,895.894775 775.779724,895.878662 
	C779.100220,895.864685 780.333618,894.110535 780.675110,890.900818 
	C781.972961,878.702454 786.476807,867.896484 794.199219,858.196594 
	C802.051575,848.333557 810.136414,838.380676 811.217590,824.970093 
	C812.253967,812.114929 810.881958,799.690125 800.878174,790.431213 
	C788.231812,778.726440 773.055786,776.965759 757.115356,782.083008 
	C738.587158,788.031067 732.950317,804.858154 731.510925,820.194336 
	C731.278320,822.672180 733.078857,823.753906 735.337891,823.857666 
	C738.496460,824.002686 741.662476,824.054565 744.824707,824.035706 
	C751.079712,823.998352 753.261108,824.676208 753.978455,816.831970 
	C754.171753,814.718750 754.926636,812.612183 755.688599,810.603088 
	C760.049438,799.105530 775.253540,795.846741 784.126709,804.410828 
	C790.148621,810.223022 789.643494,817.554077 788.845215,825.763489 
M839.381409,865.499756 
	C839.381348,870.828369 839.389282,876.156921 839.379700,881.485535 
	C839.353149,896.319031 838.052612,896.123840 854.214111,895.962280 
	C861.060608,895.893860 861.612244,895.347656 861.615479,888.511169 
	C861.629822,857.705261 861.648071,826.899231 861.609009,796.093384 
	C861.589722,780.878296 863.418335,781.377991 847.116760,781.446350 
	C839.935425,781.476440 839.409668,781.945190 839.403015,789.066833 
	C839.379578,814.211121 839.386658,839.355408 839.381409,865.499756 
M759.800049,912.216125 
	C756.793579,917.858276 759.088745,923.929138 758.387634,929.759827 
	C757.879395,933.986572 759.649902,935.971130 764.064514,935.695801 
	C767.546936,935.478516 771.053528,935.648804 774.549377,935.648987 
	C801.517334,935.650452 828.485779,935.577026 855.452881,935.727539 
	C860.018127,935.753113 861.833374,934.122009 861.617493,929.614685 
	C861.418640,925.463074 861.564636,921.293213 861.612366,917.132019 
	C861.657288,913.214417 859.868958,911.371704 855.854980,911.379150 
	C824.725708,911.436890 793.596252,911.424500 762.466858,911.453369 
	C761.816223,911.453979 761.165833,911.690002 759.800049,912.216125 
z"/>
<path fill="#000000" opacity="1.000000" stroke="none" 
	d="
M616.049438,303.840515 
	C658.671814,292.896484 700.904358,282.078583 743.136902,271.260651 
	C743.455383,271.765778 743.773926,272.270905 744.092407,272.776031 
	C680.008118,366.881989 615.923767,460.987976 552.067078,554.759705 
	C549.918945,554.958557 549.494995,553.687988 548.917664,552.755066 
	C530.262207,522.604187 511.627594,492.440460 492.996460,462.274567 
	C489.321869,456.325012 485.726227,450.325867 481.988831,444.416229 
	C480.429688,441.950867 480.405457,439.438110 481.024902,436.754761 
	C486.552063,412.812744 492.055634,388.865295 497.591370,364.925293 
	C499.724670,355.699677 502.147583,346.533508 503.984924,337.250488 
	C504.761108,333.328766 506.747009,331.824341 510.354340,330.910889 
	C541.774353,322.955200 573.157837,314.855408 604.552612,306.800018 
	C608.253601,305.850433 611.957214,304.910858 616.049438,303.840515 
z"/>
<path fill="#000000" opacity="1.000000" stroke="none" 
	d="
M540.954956,209.200531 
	C546.594238,189.999359 552.305298,171.236862 557.489380,152.329865 
	C558.988159,146.863754 561.455933,144.944992 567.137146,144.984207 
	C602.779907,145.230194 638.424988,145.153763 674.069336,145.136932 
	C678.731750,145.134735 682.461670,145.963120 685.554260,150.314148 
	C697.400085,166.980438 709.685364,183.334473 721.813416,199.800034 
	C732.471375,214.269501 743.130310,228.738297 753.812744,243.189651 
	C755.002014,244.798523 756.259583,246.341400 756.997498,249.135574 
	C675.560059,270.040833 594.207397,290.924347 511.193115,312.234436 
	C521.362915,277.005859 531.094543,243.295029 540.954956,209.200531 
z"/>
<path fill="#000000" opacity="1.000000" stroke="none" 
	d="
M320.441376,353.774780 
	C352.563049,374.888580 384.360931,395.885345 416.151550,416.893127 
	C428.501892,425.054443 440.783051,433.322144 453.212616,441.360657 
	C456.512726,443.494934 457.414215,445.358734 455.819183,449.361328 
	C443.318634,480.729889 431.072723,512.200317 418.833527,543.672424 
	C414.856232,553.899719 411.171143,564.240295 407.257660,574.492981 
	C406.506500,576.460938 405.998840,578.629944 403.392090,581.027954 
	C351.166351,523.468445 298.999603,465.973999 246.719116,408.354187 
	C250.372833,403.617218 254.941742,401.106659 258.967773,398.045105 
	C277.379395,384.044281 295.914429,370.205353 314.448242,356.366028 
	C316.116608,355.120209 317.619415,353.279327 320.441376,353.774780 
z"/>
<path fill="#000000" opacity="1.000000" stroke="none" 
	d="
M455.074310,309.884308 
	C464.572021,316.675507 473.738159,323.316406 483.015839,329.797577 
	C485.520111,331.546997 486.291351,333.290405 485.558197,336.429108 
	C479.588287,361.985352 473.826874,387.590240 467.984711,413.176392 
	C467.028625,417.363617 465.987793,421.531494 465.027954,425.533905 
	C462.323151,426.463409 460.861328,424.849579 459.264984,423.797394 
	C416.590820,395.670074 373.937073,367.511841 331.238708,339.421356 
	C329.020569,337.962128 327.613831,336.179779 326.732452,333.727509 
	C314.353577,299.285461 301.948975,264.852631 289.517853,230.429413 
	C284.770874,217.284485 279.926483,204.174789 275.159576,191.037033 
	C274.089264,188.087128 273.157410,185.086990 272.161835,182.109970 
	C272.553894,181.690750 272.945953,181.271530 273.338013,180.852325 
	C333.820221,223.792877 394.302429,266.733429 455.074310,309.884308 
z"/>
<path fill="#000000" opacity="1.000000" stroke="none" 
	d="
M737.459595,314.502228 
	C744.819275,303.671539 751.981750,293.143463 759.594055,281.954132 
	C762.847290,287.305237 762.463379,292.566101 763.236755,297.426300 
	C765.840515,313.789978 768.006897,330.222870 770.399719,346.620636 
	C773.031616,364.657196 775.749634,382.681213 778.388245,400.716827 
	C779.515198,408.419800 780.337524,416.173401 781.693909,423.833984 
	C782.317688,427.357117 781.398682,429.193787 778.253967,430.901978 
	C757.190979,442.343414 736.243408,453.997253 715.237549,465.544098 
	C674.982605,487.671997 634.716248,509.779205 594.439758,531.867859 
	C593.053406,532.628113 591.781738,533.884705 589.539551,533.442078 
	C590.134766,530.749512 591.609985,528.639221 593.071594,526.490906 
	C619.190002,488.100555 645.268433,449.683075 671.404114,411.304535 
	C693.324402,379.115875 715.307251,346.969788 737.459595,314.502228 
z"/>
<path fill="#000000" opacity="1.000000" stroke="none" 
	d="
M314.318909,130.231354 
	C332.046783,120.570587 349.508606,111.191330 366.825165,101.551079 
	C370.327332,99.601387 371.847931,100.129181 373.604797,103.661934 
	C387.844696,132.296341 402.248535,160.849258 416.616974,189.419678 
	C433.967041,223.918869 451.332245,258.410400 468.686371,292.907562 
	C469.417053,294.360077 470.557159,295.676270 470.284851,298.746735 
	C402.938904,250.954483 336.183807,203.581543 268.431824,155.501144 
	C284.180603,146.833466 299.091125,138.627151 314.318909,130.231354 
z"/>
<path fill="#000000" opacity="1.000000" stroke="none" 
	d="
M815.931763,195.251984 
	C821.732666,208.213364 827.312500,220.858322 833.038818,233.436539 
	C834.355286,236.328156 834.520508,239.053833 833.836975,242.132233 
	C826.993286,272.958191 820.256104,303.807770 813.475342,334.647705 
	C808.837036,355.742950 804.185730,376.835358 799.511841,397.922760 
	C799.123108,399.676575 798.516602,401.382111 797.040222,403.130951 
	C795.899475,395.739105 794.721436,388.352783 793.625061,380.954346 
	C790.755859,361.592987 787.930237,342.225189 785.072266,322.862152 
	C782.264465,303.838409 779.781128,284.758362 776.517517,265.812897 
	C773.629639,249.048767 777.488892,232.756348 778.850891,216.295990 
	C779.971313,202.755844 781.833374,189.277588 783.333313,175.768173 
	C784.795898,162.595779 786.216187,149.418686 787.655029,136.243637 
	C788.093689,136.131012 788.532349,136.018372 788.971069,135.905731 
	C797.902039,155.574265 806.832947,175.242798 815.931763,195.251984 
z"/>
<path fill="#000000" opacity="1.000000" stroke="none" 
	d="
M228.455505,372.990875 
	C237.663620,313.114716 246.790131,253.635651 256.090698,193.022141 
	C259.831879,199.250671 261.199280,205.118179 263.223846,210.674240 
	C277.864319,250.852356 292.272705,291.115265 306.998108,331.261993 
	C308.881622,336.397186 307.921722,339.223511 303.539703,342.457367 
	C278.757965,360.746033 254.212402,379.354767 229.585312,397.853027 
	C228.149918,398.931213 226.825226,400.227570 224.210419,400.585083 
	C225.634537,391.282257 227.004211,382.335114 228.455505,372.990875 
z"/>
<path fill="#000000" opacity="1.000000" stroke="none" 
	d="
M193.329346,220.311295 
	C208.415405,207.010788 223.240311,193.952286 238.065201,180.893784 
	C238.636978,181.105255 239.208771,181.316742 239.780548,181.528229 
	C228.870163,251.921768 217.959763,322.315308 207.049377,392.708832 
	C203.060989,388.650757 202.913925,383.787506 201.889374,379.279297 
	C194.895447,348.504578 188.078964,317.689514 181.183304,286.892395 
	C178.173859,273.451721 175.176865,260.007568 172.036469,246.597260 
	C171.074539,242.489532 171.623779,239.259933 175.074875,236.388550 
	C181.214340,231.280441 187.085052,225.849304 193.329346,220.311295 
z"/>
<path fill="#000000" opacity="1.000000" stroke="none" 
	d="
M438.497192,543.655762 
	C449.107727,516.384521 459.588837,489.480011 470.069977,462.575470 
	C470.584991,462.448730 471.100006,462.321991 471.615021,462.195251 
	C491.735779,494.770142 511.856537,527.345032 532.748840,561.169128 
	C495.754730,569.516357 459.732025,577.644409 423.709320,585.772461 
	C423.406219,585.303711 423.103088,584.835022 422.799957,584.366272 
	C427.989227,570.918335 433.178528,557.470459 438.497192,543.655762 
z"/>
<path fill="#000000" opacity="1.000000" stroke="none" 
	d="
M432.351593,180.513458 
	C419.224243,154.530045 406.287903,128.868668 393.357758,103.219658 
	C395.429260,101.786674 396.324097,103.145454 397.284058,103.839935 
	C425.589661,124.317314 453.871704,144.827194 482.180969,165.299454 
	C484.202026,166.761017 485.404205,168.394104 485.399872,171.059799 
	C485.340668,207.528061 485.355652,243.996429 485.334991,280.464783 
	C485.334625,281.105774 485.120239,281.746643 483.914124,282.843933 
	C466.790253,248.841141 449.666412,214.838318 432.351593,180.513458 
z"/>
<path fill="#000000" opacity="1.000000" stroke="none" 
	d="
M544.490967,592.576050 
	C544.778137,591.930542 544.944397,591.635742 545.041809,591.319702 
	C548.961670,578.603333 558.581238,571.930664 569.792114,565.850037 
	C620.714783,538.230103 671.319641,510.024170 722.049500,482.048523 
	C723.162964,481.434509 724.138123,480.307495 726.749634,481.033539 
	C656.055908,539.325562 585.874207,597.195435 515.692505,655.065247 
	C515.171936,654.660278 514.651367,654.255310 514.130798,653.850281 
	C524.199890,633.539124 534.268982,613.227966 544.490967,592.576050 
z"/>
<path fill="#000000" opacity="1.000000" stroke="none" 
	d="
M483.951782,590.638916 
	C499.045654,587.292603 513.719788,583.991882 528.393860,580.691223 
	C528.782227,581.106812 529.170593,581.522461 529.558960,581.938049 
	C517.118896,607.133789 504.678833,632.329529 491.800659,658.412598 
	C469.641968,640.341003 448.194275,622.849243 426.746613,605.357544 
	C426.770782,604.825317 426.794952,604.293152 426.819122,603.760986 
	C445.723450,599.402161 464.627747,595.043274 483.951782,590.638916 
z"/>
<path fill="#000000" opacity="1.000000" stroke="none" 
	d="
M717.822388,164.101074 
	C712.503601,156.883759 707.397400,149.950668 701.589111,142.064316 
	C725.050110,134.939590 747.732483,128.051300 771.216980,120.919441 
	C767.504639,154.628677 763.938782,187.007401 760.372986,219.386108 
	C759.895447,219.556717 759.417969,219.727325 758.940491,219.897934 
	C745.305298,201.393723 731.670044,182.889496 717.822388,164.101074 
z"/>
<path fill="#000000" opacity="1.000000" stroke="none" 
	d="
M607.545715,100.525208 
	C613.506897,96.225983 619.238892,92.216011 624.796631,87.977592 
	C627.653259,85.799057 630.665527,85.015900 634.118225,85.650055 
	C643.598022,87.391190 653.085632,89.092796 662.544617,90.940567 
	C664.447693,91.312317 666.521545,91.876068 667.143860,94.230637 
	C669.980103,104.961876 672.812805,115.694031 675.884827,127.327034 
	C641.151306,128.060196 607.177246,128.010605 573.201965,127.413445 
	C572.983215,126.919334 572.764526,126.425224 572.545837,125.931114 
	C584.112000,117.527351 595.678162,109.123589 607.545715,100.525208 
z"/>
<path fill="#000000" opacity="1.000000" stroke="none" 
	d="
M292.144836,122.258316 
	C281.292297,128.167419 270.783295,133.935745 260.242188,139.644836 
	C258.418091,140.632767 256.328369,142.380478 254.531052,139.780792 
	C248.127594,130.518829 241.836227,121.179359 234.832321,110.884193 
	C272.826660,103.954582 309.810028,97.209343 346.793396,90.464111 
	C347.010895,90.973732 347.228424,91.483353 347.445923,91.992973 
	C329.123077,102.027809 310.800262,112.062637 292.144836,122.258316 
z"/>
<path fill="#000000" opacity="1.000000" stroke="none" 
	d="
M511.245667,247.101624 
	C509.407501,253.164902 507.678894,258.844269 505.749207,265.184296 
	C504.263763,263.264252 504.648651,261.600647 504.647217,260.095428 
	C504.621765,233.280304 504.670410,206.464966 504.570740,179.650177 
	C504.558441,176.341354 505.475861,174.085129 508.291595,172.134140 
	C516.909607,166.162827 525.338867,159.918961 533.843262,153.783630 
	C535.159241,152.834259 536.422546,151.753052 539.082581,151.688644 
	C529.756409,183.651932 520.555786,215.184799 511.245667,247.101624 
z"/>
<path fill="#000000" opacity="1.000000" stroke="none" 
	d="
M239.283295,452.734924 
	C230.926331,445.938232 222.841248,439.371552 214.363617,432.486053 
	C219.441345,427.112244 225.169708,423.709320 230.434723,419.761810 
	C232.030212,418.565491 233.174149,420.026611 234.184891,421.152374 
	C250.840881,439.703766 267.440704,458.306000 284.169250,476.791748 
	C295.440033,489.246490 306.898254,501.531555 318.252747,513.910767 
	C319.304108,515.057007 320.736969,516.017395 321.138855,519.437622 
	C293.245300,496.710541 266.400269,474.837738 239.283295,452.734924 
z"/>
<path fill="#000000" opacity="1.000000" stroke="none" 
	d="
M229.070770,133.983627 
	C232.617752,139.241669 235.815170,144.311539 239.370529,149.116562 
	C241.744812,152.325363 241.311829,154.475708 238.345245,157.044724 
	C225.402313,168.252991 212.639099,179.668457 199.757065,190.947495 
	C195.449005,194.719467 191.493576,198.942444 185.677826,201.436859 
	C197.338043,175.528534 208.998276,149.620209 220.886337,123.205627 
	C224.588593,126.674911 226.424088,130.417877 229.070770,133.983627 
z"/>
<path fill="#000000" opacity="1.000000" stroke="none" 
	d="
M698.267761,124.395126 
	C696.167236,124.770622 694.263184,125.909714 693.461426,123.085106 
	C690.977051,114.332726 688.486511,105.584900 686.502319,95.397705 
	C707.905701,99.345581 728.445312,103.134148 748.984924,106.922707 
	C749.060364,107.549026 749.135742,108.175354 749.211121,108.801674 
	C732.361206,113.971642 715.511353,119.141602 698.267761,124.395126 
z"/>
<path fill="#000000" opacity="1.000000" stroke="none" 
	d="
M518.812134,860.896057 
	C512.736572,864.171753 507.069672,867.455444 500.929596,869.683960 
	C500.552765,869.375732 500.175903,869.067566 499.799072,868.759399 
	C505.493713,853.502869 511.188385,838.246338 516.883057,822.989807 
	C517.290222,822.995667 517.697449,823.001465 518.104614,823.007324 
	C521.671387,832.973694 525.236389,842.940674 528.806458,852.905884 
	C529.450317,854.703125 528.531311,855.754700 527.078674,856.528748 
	C524.437622,857.936218 521.783203,859.318542 518.812134,860.896057 
z"/>
</svg>