<?xml version="1.0" encoding="iso-8859-1"?>
<!-- Generator: Adobe Illustrator 19.0.0, SVG Export Plug-In . SVG Version: 6.00 Build 0)  -->
<svg version="1.1" id="Layer_1" xmlns="http://www.w3.org/2000/svg" xmlns:xlink="http://www.w3.org/1999/xlink" x="0px" y="0px"
	 viewBox="0 0 496 496" style="enable-background:new 0 0 496 496;" xml:space="preserve">
<polygon style="fill:#E583B0;" points="280,293.6 248,448.8 216,293.6 248,261.6 "/>
<polygon style="fill:#BC628B;" points="280,293.6 248,448.8 240,303.2 248,261.6 "/>
<polygon style="fill:#E583B0;" points="226.4,266.4 28.8,228 0,40 188,78.4 "/>
<polygon style="fill:#BC628B;" points="226.4,266.4 28.8,228 100,183.2 188,78.4 "/>
<polygon style="fill:#EFA3C2;" points="226.4,266.4 96.8,190.4 112.8,107.2 188,78.4 "/>
<polygon style="fill:#FCCC32;" points="226.4,266.4 96.8,190.4 0,40 111.2,106.4 "/>
<polygon style="fill:#EAAC0F;" points="226.4,266.4 96.8,190.4 91.2,119.2 111.2,106.4 "/>
<path style="fill:#E583B0;" d="M210.4,282.4c-27.2-27.2-71.2-27.2-98.4,0s-27.2,71.2,0,98.4"/>
<path style="fill:#FCCC32;" d="M187.2,304.8c-14.4-14.4-38.4-14.4-52.8,0s-14.4,38.4,0,52.8"/>
<path style="fill:#EAAC0F;" d="M95.2,412.8c27.2,27.2,71.2,27.2,98.4,0s27.2-71.2,0-98.4"/>
<g>
	<path style="fill:#BC628B;" d="M113.6,395.2c16.8,16.8,44.8,16.8,61.6,0s16.8-44.8,0-61.6"/>
	<circle style="fill:#BC628B;" cx="166.4" cy="124" r="5.6"/>
	<circle style="fill:#BC628B;" cx="176" cy="147.2" r="5.6"/>
	<circle style="fill:#BC628B;" cx="184.8" cy="171.2" r="5.6"/>
</g>
<polygon style="fill:#E583B0;" points="269.6,266.4 467.2,228 496,40 308,78.4 "/>
<polygon style="fill:#BC628B;" points="269.6,266.4 467.2,228 396,183.2 308,78.4 "/>
<polygon style="fill:#EFA3C2;" points="269.6,266.4 399.2,190.4 383.2,107.2 308,78.4 "/>
<polygon style="fill:#FCCC32;" points="269.6,266.4 399.2,190.4 496,40 384.8,106.4 "/>
<polygon style="fill:#EAAC0F;" points="269.6,266.4 399.2,190.4 404.8,119.2 384.8,106.4 "/>
<path style="fill:#E583B0;" d="M285.6,282.4c27.2-27.2,71.2-27.2,98.4,0s27.2,71.2,0,98.4"/>
<path style="fill:#FCCC32;" d="M308.8,304.8c14.4-14.4,38.4-14.4,52.8,0s14.4,38.4,0,52.8"/>
<path style="fill:#EAAC0F;" d="M400.8,412.8c-27.2,27.2-71.2,27.2-98.4,0c-27.2-27.2-27.2-71.2,0-98.4"/>
<g>
	<path style="fill:#BC628B;" d="M382.4,395.2c-16.8,16.8-44.8,16.8-61.6,0c-16.8-16.8-16.8-44.8,0-61.6"/>
	<circle style="fill:#BC628B;" cx="329.6" cy="124" r="5.6"/>
	<circle style="fill:#BC628B;" cx="320" cy="147.2" r="5.6"/>
	<circle style="fill:#BC628B;" cx="311.2" cy="171.2" r="5.6"/>
	
		<rect x="239.387" y="230.333" transform="matrix(-0.7069 0.7073 -0.7073 -0.7069 592.7723 232.6332)" style="fill:#BC628B;" width="17.6" height="17.6"/>
</g>
<g>
	<rect x="16" y="432" style="fill:#52C1DB;" width="24" height="24"/>
	<rect x="53.6" y="410.4" style="fill:#52C1DB;" width="9.6" height="9.6"/>
</g>
<g>
	<circle style="fill:#89DBEF;" cx="44" cy="374.4" r="12"/>
	<circle style="fill:#89DBEF;" cx="73.6" cy="447.2" r="4"/>
</g>
<g>
	
		<rect x="419.869" y="346.208" transform="matrix(0.7071 -0.7071 0.7071 0.7071 -127.1314 411.0942)" style="fill:#52C1DB;" width="25.6" height="25.6"/>
	
		<rect x="427.962" y="393.541" transform="matrix(0.7079 -0.7063 0.7063 0.7079 -154.9435 422.0157)" style="fill:#52C1DB;" width="9.6" height="9.6"/>
</g>
<g>
	<circle style="fill:#89DBEF;" cx="472" cy="416" r="12"/>
	<circle style="fill:#89DBEF;" cx="399.2" cy="386.4" r="4"/>
</g>
<g>
</g>
<g>
</g>
<g>
</g>
<g>
</g>
<g>
</g>
<g>
</g>
<g>
</g>
<g>
</g>
<g>
</g>
<g>
</g>
<g>
</g>
<g>
</g>
<g>
</g>
<g>
</g>
<g>
</g>
</svg>
