<?xml version='1.0' encoding='iso-8859-1'?>
<svg version="1.1" xmlns="http://www.w3.org/2000/svg" viewBox="0 0 281.414 281.414" xmlns:xlink="http://www.w3.org/1999/xlink" enable-background="new 0 0 281.414 281.414">
  <path d="m274.281,119.985c-8.077-10.69-23.618-19.047-46.702-19.293 3.647-7.648 5.095-15.54 4.106-23.058-1.942-14.748-13.156-25.962-27.904-27.903-7.045-0.93-14.414,0.284-21.603,3.438-1.406-15.882-7.868-29.066-18.241-37.155-13.895-10.834-32.564-10.834-46.459,0-10.373,8.089-16.835,21.273-18.241,37.156-7.188-3.152-14.557-4.366-21.603-3.439-14.749,1.94-25.963,13.154-27.904,27.902-0.99,7.519 0.458,15.41 4.105,23.058-23.084,0.247-38.624,8.604-46.702,19.293-9.511,12.588-9.511,28.855 0,41.443 8.077,10.69 23.619,19.044 46.703,19.291-3.648,7.648-5.096,15.541-4.106,23.06 1.941,14.748 13.155,25.962 27.903,27.903 1.55,0.204 3.113,0.306 4.688,0.306 5.587,0 11.305-1.281 16.915-3.741 1.407,15.881 7.868,29.064 18.241,37.153 6.947,5.417 15.089,8.126 23.229,8.126s16.282-2.709 23.229-8.126c10.372-8.089 16.834-21.271 18.241-37.153 5.609,2.459 11.327,3.741 16.915,3.741 1.574,0 3.14-0.102 4.688-0.306 14.748-1.941 25.962-13.155 27.904-27.903 0.989-7.519-0.459-15.412-4.107-23.061 23.081-0.248 38.627-8.602 46.703-19.291 9.512-12.586 9.512-28.853 0.002-41.441zm-75.133-40.556c0.261,0 0.5,0.016 0.716,0.044 1.389,0.183 1.894,0.688 2.076,2.076 0.498,3.78-3.037,14.416-21.767,25.413-0.872-1.019-1.775-2.02-2.739-2.984-0.962-0.962-1.961-1.864-2.978-2.734 10.366-17.65 20.41-21.815 24.692-21.815zm-42.927,76.792c-8.555,8.556-22.474,8.554-31.028,0-8.555-8.555-8.555-22.475 0-31.029 4.278-4.277 9.896-6.416 15.515-6.416 5.617,0 11.236,2.14 15.513,6.416 8.554,8.555 8.554,22.475-2.84217e-14,31.029zm-20.296-116.552c3.039-2.369 6.523-2.369 9.563,0 5.841,4.554 11.82,19.854 1.181,49.475-3.961-0.454-7.963-0.454-11.924,0-10.64-29.621-4.661-44.92 1.18-49.475zm-56.452,41.88c0.183-1.389 0.688-1.894 2.076-2.076 0.217-0.028 0.455-0.044 0.716-0.044 4.282,0 14.327,4.166 24.692,21.816-1.016,0.87-2.015,1.772-2.977,2.734-0.964,0.964-1.867,1.965-2.739,2.984-18.732-10.998-22.266-21.634-21.768-25.414zm-48.404,61.794c-1.415-1.873-1.415-3.4-3.55271e-15-5.273 5.16-6.827 24.578-12.084 57.871-1.108-0.179,2.494-0.179,4.996 0,7.49-33.294,10.975-52.712,5.719-57.871-1.109zm50.48,58.597c-1.389-0.183-1.894-0.688-2.076-2.076-0.498-3.78 3.036-14.416 21.767-25.414 0.872,1.019 1.775,2.02 2.739,2.984 0.962,0.962 1.961,1.864 2.978,2.734-10.993,18.722-21.622,22.269-25.408,21.772zm63.939,39.804c-3.039,2.369-6.523,2.369-9.563,0-5.841-4.554-11.82-19.854-1.181-49.476 1.981,0.227 3.971,0.355 5.963,0.355 1.991,0 3.98-0.128 5.961-0.354 10.64,29.621 4.66,44.92-1.18,49.475zm56.452-41.88c-0.183,1.389-0.688,1.894-2.076,2.076-3.778,0.496-14.412-3.048-25.408-21.771 1.017-0.871 2.016-1.772 2.978-2.735h0.001c0.964-0.964 1.867-1.965 2.739-2.983 18.729,10.997 22.264,21.633 21.766,25.413zm48.405-56.521c-5.16,6.828-24.578,12.084-57.872,1.108 0.179-2.494 0.179-4.996 0-7.49 33.296-10.975 52.711-5.72 57.872,1.108 1.414,1.874 1.414,3.401-2.84217e-14,5.274z"/>
</svg>
